<?xml version="1.0" encoding="iso-8859-1"?>
<!-- Generator: Adobe Illustrator 16.0.0, SVG Export Plug-In . SVG Version: 6.00 Build 0)  -->
<!DOCTYPE svg PUBLIC "-//W3C//DTD SVG 1.1//EN" "http://www.w3.org/Graphics/SVG/1.1/DTD/svg11.dtd">
<svg version="1.1" id="Capa_1" xmlns="http://www.w3.org/2000/svg" xmlns:xlink="http://www.w3.org/1999/xlink" x="0px" y="0px"
	 width="191.693px" height="191.693px" viewBox="0 0 191.693 191.693" style="enable-background:new 0 0 191.693 191.693;"
	 xml:space="preserve">
<g>
	<path d="M190.068,91.125c-6.539-13.766-30.639-20.577-31.661-20.856c-0.085-0.029-0.164,0.005-0.259,0
		c-0.079-0.008-0.137-0.013-0.222,0c-0.321,0.026-0.622,0.129-0.849,0.361c-0.222,0.232-0.312,0.533-0.332,0.841
		c-0.011,0.087,0,0.153,0.011,0.237c0.016,0.093-0.021,0.174,0.016,0.262c2.789,8.909,2.727,13.824,1.756,18.462
		c-2.626,12.864-2.489,20.095,5.611,23.892c2.057,0.97,4.028,1.461,5.874,1.461c1.36,0,2.573-0.259,3.634-0.681
		c-1.782,1.745-4.023,2.911-6.502,3.322c-8.048,1.36-12.709-3.86-20.25-13.131c-0.738-0.896-1.435-1.888-2.136-2.827
		c0.369,0.063,0.759,0.153,1.139,0.153c1.261,0,2.562-0.337,3.818-1.022c3.264-1.799,4.482-5.923,2.689-9.192
		c-1.509-2.742-4.979-3.741-7.742-2.246c-2.325,1.281-3.18,4.219-1.908,6.544c1.097,1.983,3.617,2.711,5.6,1.625
		c0.507-0.274,0.665-0.828,0.58-1.361c0.011-0.037,0.063-0.058,0.069-0.1c0.142-0.839-0.417-1.646-1.261-1.788
		c-0.728-0.121-1.35,0.332-1.624,0.991c-0.401-0.079-0.786-0.273-1.002-0.675c-0.56-1.022-0.185-2.315,0.828-2.874
		c1.455-0.785,3.27-0.258,4.07,1.176c1.076,1.962,0.349,4.44-1.624,5.521c-3.333,1.824-5.906-0.242-7.467-2.299
		c-0.158-0.201-0.391-0.27-0.602-0.354c-5.938-7.929-12.988-15.839-25.027-15.839c-0.138,0-0.301,0-0.433,0
		c-5.822,0.09-11.074,2.489-14.784,6.75c-1.832,2.104-3.148,4.622-4.055,7.322c-0.88-3.048-2.365-5.854-4.409-8.192
		c-3.715-4.266-8.962-6.658-14.794-6.75c-12.361-0.211-19.461,7.808-25.45,15.834c-0.222,0.089-0.443,0.152-0.601,0.353
		c-1.558,2.057-4.113,4.14-7.467,2.305c-1.97-1.086-2.7-3.564-1.638-5.521c0.789-1.429,2.605-1.979,4.074-1.181
		c1.015,0.564,1.402,1.851,0.836,2.874c-0.217,0.39-0.583,0.585-1.01,0.664c-0.274-0.653-0.896-1.107-1.614-0.986
		c-0.844,0.143-1.421,0.949-1.263,1.788c0,0.047,0.053,0.063,0.063,0.105c-0.077,0.538,0.097,1.086,0.588,1.355
		c1.993,1.097,4.503,0.358,5.59-1.63c1.268-2.331,0.422-5.263-1.912-6.542c-2.742-1.498-6.204-0.483-7.738,2.254
		c-1.783,3.259-0.562,7.378,2.7,9.181c1.252,0.686,2.555,1.023,3.818,1.023c0.38,0,0.772-0.09,1.139-0.153
		c-0.707,0.949-1.413,1.936-2.138,2.832c-7.539,9.281-12.208,14.471-20.255,13.131c-2.479-0.411-4.714-1.571-6.489-3.317
		c1.052,0.422,2.262,0.676,3.623,0.676c1.846,0,3.818-0.49,5.875-1.456c8.1-3.797,8.234-11.026,5.611-23.891
		c-0.968-4.644-1.016-9.563,1.753-18.463c0.04-0.087,0-0.174,0.014-0.258c0.016-0.087,0.026-0.153,0.016-0.237
		c-0.034-0.314-0.113-0.612-0.335-0.844c-0.232-0.237-0.541-0.335-0.854-0.367c-0.076-0.005-0.124,0-0.205,0
		c-0.09,0.006-0.182-0.028-0.27,0c-1.02,0.28-25.125,7.091-31.659,20.854c-2.162,4.554-2.162,9.342-0.008,14.257
		c0.87,1.961,3.937,4.683,7.425,4.683c1.015,0,1.972-0.237,2.884-0.675c0.448,1.94,1.237,3.802,2.371,5.452
		c2.355,3.37,5.833,5.585,9.801,6.244c10.012,1.682,15.916-5.638,22.81-14.086c1.551-1.909,3.035-3.944,4.546-6.006
		c6.32-8.638,12.838-17.553,24.933-17.553c0.119,0,0.253,0,0.377,0c2.168,0.031,4.208,0.501,6.131,1.242
		c0.021,0.01,0.021,0.037,0.031,0.053c4.957,4.126,6.162,8.902,3.375,13.447c-2.148,3.523-6.771,4.641-10.291,2.489
		c-2.694-1.661-3.549-5.188-1.901-7.873c0.583-0.983,1.527-1.669,2.645-1.938c1.118-0.282,2.292-0.093,3.262,0.511
		c0.675,0.412,1.097,1.046,1.329,1.743c-0.232-0.037-0.475-0.09-0.717-0.058c-1.4,0.168-2.371,1.439-2.215,2.832
		c0.168,1.392,1.453,2.378,2.829,2.204c0.374-0.042,0.725-0.19,1.015-0.38c0.432-0.016,0.854-0.164,1.107-0.564
		c1.685-2.769,0.804-6.392-1.943-8.081c-1.608-0.979-3.488-1.271-5.308-0.839c-1.822,0.443-3.354,1.566-4.333,3.153
		c-2.417,3.952-1.17,9.147,2.803,11.589c1.659,1.012,3.488,1.492,5.287,1.492c3.436,0,6.792-1.735,8.704-4.873
		c2.039-3.312,2.365-6.766,1.163-10.064c3.46,4.111,5.065,9.785,4.346,15.644c-0.533,4.366-2.727,8.252-6.188,10.963
		c-3.459,2.711-7.771,3.902-12.116,3.375c-0.793-0.116-1.426,0.438-1.503,1.182c-0.103,0.743,0.438,1.418,1.189,1.497
		c0.789,0.101,1.572,0.147,2.354,0.147c4.251,0,8.364-1.413,11.766-4.081c2.818-2.21,4.867-5.12,6.093-8.406
		c2.5,7.879,9.882,13.353,18.23,13.353c0.771,0,1.545-0.047,2.331-0.137c0.749-0.096,1.266-0.765,1.187-1.498
		c-0.09-0.743-0.701-1.297-1.498-1.182c-8.954,1.118-17.215-5.336-18.327-14.338c-0.709-5.864,0.896-11.538,4.355-15.639
		c-1.207,3.293-0.873,6.753,1.157,10.064c1.909,3.138,5.284,4.867,8.707,4.867c1.809,0,3.639-0.479,5.289-1.486
		c1.914-1.182,3.265-3.033,3.797-5.216c0.527-2.184,0.169-4.451-1.007-6.36c-0.981-1.6-2.521-2.718-4.335-3.161
		c-1.814-0.442-3.718-0.145-5.306,0.839c-1.339,0.82-2.277,2.117-2.642,3.646c-0.369,1.523-0.116,3.101,0.707,4.44
		c0.242,0.4,0.664,0.548,1.097,0.563c0.306,0.19,0.638,0.333,1.018,0.375c1.393,0.174,2.658-0.812,2.826-2.204
		c0.158-1.393-0.822-2.663-2.204-2.832c-0.242-0.032-0.485,0.016-0.717,0.058c0.231-0.717,0.675-1.339,1.329-1.74
		c0.97-0.606,2.13-0.796,3.259-0.514c1.118,0.271,2.062,0.957,2.657,1.943c0.791,1.303,1.039,2.837,0.686,4.318
		c-0.358,1.487-1.275,2.753-2.589,3.555c-3.522,2.146-8.143,1.033-10.283-2.489c-2.795-4.54-1.593-9.315,3.364-13.447
		c0.021-0.016,0.011-0.042,0.032-0.053c1.908-0.741,3.944-1.21,6.127-1.242c0.122,0,0.259,0,0.391,0
		c12.087,0,18.61,8.92,24.917,17.552c1.508,2.067,3.011,4.108,4.562,6.012c6.871,8.443,12.846,15.736,22.797,14.086
		c3.981-0.665,7.473-2.874,9.814-6.244c1.139-1.65,1.914-3.507,2.362-5.452c0.907,0.432,1.872,0.675,2.874,0.675
		c3.501,0,6.565-2.722,7.425-4.688C192.236,100.464,192.236,95.676,190.068,91.125z M4.051,91.41
		c0.227-0.482,0.593-0.915,0.875-1.379l6.729,10.296c-0.282,1.208-0.406,2.368-0.396,3.486l-7.91-9.234
		c-0.098-0.105-0.227-0.1-0.335-0.174C3.247,93.403,3.587,92.401,4.051,91.41z M14.247,105.559c-0.056-1.013-0.011-2.02,0.171-3.021
		c0.061-0.301-0.042-0.58-0.171-0.833l17.7,0.121c-0.042,1.582-0.303,2.863-0.69,4.013L14.247,105.559z M19.932,89.155l10.283-0.675
		c0.084,0.564,0.177,1.097,0.295,1.622c0.134,0.728,0.243,1.339,0.356,2.014l-13.099,0.49
		C18.442,91.463,19.165,90.308,19.932,89.155z M24.636,82.754l5.287-0.256c-0.066,1.194-0.053,2.286,0.01,3.301l-8.013,0.527
		C22.801,85.101,23.708,83.914,24.636,82.754z M30.176,79.782l-3.233,0.155c1.392-1.65,2.752-3.18,4.016-4.546
		C30.598,76.995,30.354,78.438,30.176,79.782z M24.971,78.087l0.195-2.911c1.31-0.557,2.57-1.052,3.683-1.464
		C27.697,74.959,26.387,76.428,24.971,78.087z M22.125,81.554c-0.778,0.983-1.55,2.009-2.312,3.046l-0.923-6.416
		c1.184-0.633,2.349-1.226,3.488-1.756l-0.33,4.937C22.049,81.44,22.125,81.488,22.125,81.554z M17.556,87.861
		c-0.567,0.865-1.134,1.732-1.659,2.608l-3.016-8.43c-0.029-0.053-0.087-0.063-0.114-0.113c1.16-0.825,2.365-1.593,3.578-2.32
		L17.556,87.861z M16.293,95.37l15.082-0.569c0.243,1.598,0.393,3.011,0.485,4.319l-17.086-0.116
		C15.175,97.833,15.671,96.614,16.293,95.37z M26.397,111.011c-1.685,0.791-3.267,1.197-4.714,1.197
		c-3.333,0-5.39-2.151-6.539-3.929l14.681,0.237C28.949,109.529,27.821,110.336,26.397,111.011z M10.59,83.632l3.57,9.993
		c-0.567,1.123-1.052,2.241-1.474,3.343L6.54,87.573C7.703,86.16,9.1,84.863,10.59,83.632z M4.077,103.407
		c-0.799-1.836-1.197-3.612-1.305-5.353l7.09,8.273c-0.282,0.063-0.546,0.153-0.828,0.153
		C6.674,106.486,4.555,104.482,4.077,103.407z M160.427,106.714c-0.38-1.145-0.648-2.426-0.69-4.008l17.697-0.122
		c-0.127,0.253-0.232,0.533-0.169,0.833c0.19,1.002,0.227,2.015,0.18,3.022L160.427,106.714z M169.776,87.191l-8.021-0.525
		c0.058-1.015,0.073-2.104,0.011-3.298l5.289,0.253C167.973,84.789,168.891,85.981,169.776,87.191z M173.911,93.482l-13.11-0.49
		c0.116-0.675,0.222-1.287,0.369-2.015c0.111-0.524,0.195-1.065,0.296-1.622l10.283,0.675
		C172.524,91.183,173.246,92.338,173.911,93.482z M175.398,96.245c0.611,1.234,1.117,2.458,1.519,3.634l-17.097,0.116
		c0.095-1.308,0.242-2.721,0.496-4.324L175.398,96.245z M174.133,88.741l1.191-8.263c1.229,0.725,2.421,1.493,3.581,2.323
		c-0.026,0.048-0.085,0.063-0.111,0.113l-3.026,8.427C175.261,90.469,174.702,89.604,174.133,88.741z M171.875,85.485
		c-0.759-1.042-1.534-2.062-2.31-3.046c0-0.071,0.074-0.118,0.068-0.189l-0.332-4.941c1.149,0.535,2.31,1.123,3.486,1.762
		L171.875,85.485z M166.713,78.962c-1.408-1.658-2.727-3.132-3.876-4.374c1.107,0.411,2.367,0.907,3.681,1.463L166.713,78.962z
		 M164.751,80.813l-3.238-0.156c-0.174-1.345-0.422-2.787-0.785-4.385C161.987,77.633,163.349,79.162,164.751,80.813z
		 M180.429,104.693c0.011-1.112-0.11-2.278-0.396-3.485l6.724-10.296c0.29,0.466,0.648,0.894,0.876,1.374
		c0.469,0.991,0.812,1.999,1.033,3.001c-0.116,0.073-0.242,0.068-0.338,0.168L180.429,104.693z M185.144,88.449l-6.139,9.395
		c-0.422-1.107-0.917-2.221-1.481-3.349l3.57-9.988C182.591,85.738,183.983,87.036,185.144,88.449z M165.283,111.882
		c-1.424-0.67-2.573-1.472-3.428-2.489l14.671-0.237c-1.149,1.771-3.217,3.934-6.518,3.934
		C168.574,113.078,166.981,112.678,165.283,111.882z M182.649,107.362c-0.28,0-0.554-0.101-0.823-0.153l7.088-8.264
		c-0.111,1.74-0.496,3.513-1.292,5.343C187.126,105.358,185.022,107.362,182.649,107.362z"/>
</g>
<g>
</g>
<g>
</g>
<g>
</g>
<g>
</g>
<g>
</g>
<g>
</g>
<g>
</g>
<g>
</g>
<g>
</g>
<g>
</g>
<g>
</g>
<g>
</g>
<g>
</g>
<g>
</g>
<g>
</g>
</svg>
